# xmcd
#
# Track frame offsets:
#	150
#	15911
#	35757
#	63352
#	87372
#	102447
#	116253
#	135325
#	156866
#	175296
#	190975
#	235127
#	245545
#	259432
#
# Disc length: 3666 seconds
#
# Revision: 0
# Processed by: cddbd v1.5PL3 Copyright (c) Steve Scherf et al.
# Submitted via: dBpowerAMP V4.0
#
DISCID=b70e500e
DTITLE=Joe Price, Dave Moore, Radoslav Lorkovic - Live at the Main
DYEAR=2003
DGENRE=blues
TTITLE0=Doctor
TTITLE1=Tango 'til They're Sore
TTITLE2=Old Blue
TTITLE3=Big Time
TTITLE4=Nobody But You
TTITLE5=Postville
TTITLE6=Sugar Mama
TTITLE7=Mountain of Blues
TTITLE8=Mystery Train
TTITLE9=Suitcase Boogie
TTITLE10=North Wind
TTITLE11=Main Entrance Polka
TTITLE12=Main Entrance Boogie no. 9
TTITLE13=Running Wild
EXTD=
EXTT0=
EXTT1=
EXTT2=
EXTT3=
EXTT4=
EXTT5=
EXTT6=
EXTT7=
EXTT8=
EXTT9=
EXTT10=
EXTT11=
EXTT12=
EXTT13=
PLAYORDER=
